<svg xmlns="http://www.w3.org/2000/svg" viewBox="0 0 338.76 61.06"><defs><style>.cls-1{isolation:isolate;}.cls-2{fill:#fff;}.cls-3{fill:#e60012;mix-blend-mode:multiply;}</style></defs><title>DAG_DIC</title><g class="cls-1"><g id="レイヤー_1" data-name="レイヤー 1"><path class="cls-2" d="M594.22,391v-3.71c0-11.94-11.61-17.92-22.56-17.92H518.32V429h54.29c10.66-.33,21.61-6.31,21.61-17.91V396.74H558L568.23,406h12.53v5c0,5-4.22,7.42-9.1,7.42H531.76v-38.6h39.89c4.88,0,9.1,2.37,9.1,7.42V391Z" transform="translate(-255.46 -368.63)"/><polygon class="cls-3" points="119.84 61.02 106.71 61.02 106.71 48.98 119.84 61.02"/><polygon class="cls-3" points="245.82 61.02 232.69 61.02 232.69 48.98 245.82 61.02"/><path class="cls-2" d="M468.9,385.5c-.41-8.09-7.63-16.38-21.68-16.85l-31.93,0c-15.3,0-22.94,9.06-22.94,17.61v43.45H405.8V386.24c0-3.81,3-7.08,9.48-7.08h31.93c5.6.39,8.25,3.53,8.25,7.08v10.4H422.21l11.6,10.51h21.66v22.54h13.45V386.24C468.92,386,468.92,385.75,468.9,385.5Z" transform="translate(-255.46 -368.63)"/><path class="cls-2" d="M320.39,369.36H255.46L267,379.86V429h54.28c10.36-.32,21-6,21.59-16.93l0-24.73C342.95,375.34,331.33,369.36,320.39,369.36ZM329.46,412c-.51,4.37-4.52,6.44-9.07,6.44H280.5v-38.6h39.89c4.88,0,9.07,2.37,9.07,7.42Z" transform="translate(-255.46 -368.63)"/></g></g></svg>