<?xml version="1.0" encoding="utf-8"?>
<!-- Generator: Adobe Illustrator 25.1.0, SVG Export Plug-In . SVG Version: 6.00 Build 0)  -->
<svg version="1.1" id="レイヤー_1" xmlns="http://www.w3.org/2000/svg" xmlns:xlink="http://www.w3.org/1999/xlink" x="0px"
	 y="0px" viewBox="0 0 490.8 153.3" style="enable-background:new 0 0 490.8 153.3;" xml:space="preserve">
<style type="text/css">
	.st0{fill:#E7290F;}
</style>
<g id="posi">
	<g>
		<g>
			<g>
				<path class="st0" d="M0,134.9h5.6c5,0,9,4,9,9c0,4.9-4,9-9,9H0V134.9z M5.6,151c3.9,0,7-3.1,7-7.1s-3.1-7.1-7-7.1H2V151H5.6z"/>
				<path class="st0" d="M21.3,135h2v18h-2V135z"/>
				<path class="st0" d="M30.1,143.9c0-5.2,4.2-9.4,9.4-9.4c2.6,0,5.2,1,6.9,3l-1.3,1.3c-1.6-1.6-3.3-2.4-5.7-2.4
					c-4.1,0-7.3,3.3-7.3,7.5c0,4.2,3.3,7.5,7.3,7.5c2.1,0,3.9-0.6,5.4-2.1v-4.4h-4.2V143h6.2v6.8c-1.1,1.4-3.5,3.5-7.4,3.5
					C34.3,153.3,30.1,149.1,30.1,143.9z"/>
				<path class="st0" d="M53.9,135h2v18h-2V135z"/>
				<path class="st0" d="M66.7,136.8h-4.7v-1.9h11.3v1.9h-4.6v16.1h-2V136.8z"/>
				<path class="st0" d="M83.9,134.9h2.5l6.4,18h-2.1l-1.1-3.2h-8.7l-1.1,3.2h-2.1L83.9,134.9z M88.8,147.8l-3.3-9.6
					c-0.1-0.4-0.2-0.7-0.3-1h-0.1c-0.1,0.4-0.2,0.7-0.3,1l-3.3,9.6H88.8z"/>
				<path class="st0" d="M98.9,134.9h2V151h8.2v1.9H98.9V134.9z"/>
				<path class="st0" d="M128.6,134.9h2.5l6.4,18h-2.1l-1.1-3.2h-8.7l-1.1,3.2h-2.1L128.6,134.9z M133.5,147.8l-3.3-9.6
					c-0.1-0.4-0.2-0.7-0.3-1h-0.1c-0.1,0.4-0.2,0.7-0.3,1l-3.3,9.6H133.5z"/>
				<path class="st0" d="M143.5,134.9h5.3c3.5,0,6.3,2.7,6.3,6.2c0,2.8-1.9,5.1-4.4,5.8l4,5.9h-2.3l-3.7-5.5h-3v5.5h-2L143.5,134.9z
					 M148.8,145.5c2.3,0,4.3-1.9,4.3-4.4c0-2.5-1.9-4.4-4.3-4.4h-3.2v8.8H148.8z"/>
				<path class="st0" d="M164.7,136.8H160v-1.9h11.3v1.9h-4.6v16.1h-2V136.8z"/>
				<path class="st0" d="M185.2,148.1h2c0,1.8,1.8,3.3,4,3.3c2.3,0,4-1.5,4-3.2c0-2.4-1.7-2.9-4.2-3.6c-2.3-0.7-5.3-1.5-5.3-5
					c0-2.8,2.6-5,5.8-5s5.8,2.2,5.8,5h-2c0-1.8-1.7-3.1-3.8-3.1s-3.8,1.3-3.8,3c0,1.9,1.4,2.5,3.8,3.2s5.6,1.5,5.6,5.4
					c0,3-2.7,5.2-6,5.2C187.9,153.3,185.2,151,185.2,148.1z"/>
				<path class="st0" d="M206.9,136.8h-4.7v-1.9h11.3v1.9H209v16.1h-2V136.8z"/>
				<path class="st0" d="M219.4,146.7v-11.8h2v11.9c0,2.6,1.9,4.5,4.6,4.5c2.7,0,4.6-1.9,4.6-4.5v-11.9h2v11.8
					c0,3.7-2.9,6.6-6.6,6.6C222.2,153.3,219.4,150.4,219.4,146.7z"/>
				<path class="st0" d="M240.3,134.9h5.6c5,0,9,4,9,9c0,4.9-4,9-9,9h-5.6V134.9z M245.9,151c3.8,0,7-3.1,7-7.1s-3.1-7.1-7-7.1h-3.6
					V151H245.9z"/>
				<path class="st0" d="M261.7,135h2v18h-2V135z"/>
				<path class="st0" d="M270.5,143.9c0-5.2,4.2-9.3,9.4-9.3c5.2,0,9.4,4.2,9.4,9.3s-4.2,9.4-9.4,9.4
					C274.7,153.3,270.5,149.1,270.5,143.9z M287.2,143.9c0-4.1-3.2-7.4-7.4-7.4c-4.2,0-7.3,3.3-7.3,7.4c0,4.2,3.2,7.4,7.3,7.4
					C284,151.4,287.2,148.1,287.2,143.9z"/>
				<path class="st0" d="M340.9,134.9h5.3c3.5,0,6.3,2.7,6.3,6.2c0,2.8-1.9,5.1-4.4,5.8l4,5.9h-2.3l-3.7-5.5h-3v5.5h-2L340.9,134.9z
					 M346.2,145.5c2.3,0,4.3-1.9,4.3-4.4c0-2.5-1.9-4.4-4.3-4.4H343v8.8H346.2z"/>
				<path class="st0" d="M358.1,143.9c0-5.2,4.2-9.3,9.4-9.3c5.2,0,9.4,4.2,9.4,9.3s-4.2,9.4-9.4,9.4
					C362.3,153.3,358.1,149.1,358.1,143.9z M374.9,143.9c0-4.1-3.2-7.4-7.4-7.4c-4.2,0-7.3,3.3-7.3,7.4c0,4.2,3.2,7.4,7.3,7.4
					C371.6,151.4,374.9,148.1,374.9,143.9z"/>
				<path class="st0" d="M383.6,134.9h5.2c3.5,0,6.3,2.8,6.3,6.3c0,3.4-2.8,6.2-6.3,6.2h-3.2v5.5h-2V134.9z M388.8,145.6
					c2.4,0,4.3-1.9,4.3-4.4c0-2.5-1.9-4.4-4.3-4.4h-3.2v8.8H388.8z"/>
				<path class="st0" d="M401.7,134.9h5.2c3.5,0,6.3,2.8,6.3,6.3c0,3.4-2.8,6.2-6.3,6.2h-3.2v5.5h-2V134.9z M406.9,145.6
					c2.4,0,4.3-1.9,4.3-4.4c0-2.5-1.9-4.4-4.3-4.4h-3.2v8.8H406.9z"/>
				<path class="st0" d="M418.5,143.9c0-5.2,4.2-9.3,9.4-9.3c5.2,0,9.4,4.2,9.4,9.3s-4.2,9.4-9.4,9.4
					C422.7,153.3,418.5,149.1,418.5,143.9z M435.3,143.9c0-4.1-3.2-7.4-7.4-7.4c-4.2,0-7.3,3.3-7.3,7.4c0,4.2,3.2,7.4,7.3,7.4
					C432,151.4,435.3,148.1,435.3,143.9z"/>
				<path class="st0" d="M444,134.9h2.1l8.5,13.4c0.3,0.5,0.6,1.1,0.9,1.6h0.1v-15h2v17.9h-2.2l-8.6-13.6c-0.3-0.4-0.5-0.8-0.7-1.3
					H446v14.9h-2V134.9z"/>
				<path class="st0" d="M464.4,143.9c0-5.2,4.2-9.4,9.4-9.4c2.6,0,5.2,1,6.9,3l-1.3,1.3c-1.6-1.6-3.3-2.4-5.7-2.4
					c-4.1,0-7.3,3.3-7.3,7.5c0,4.2,3.3,7.5,7.3,7.5c2.1,0,3.8-0.6,5.4-2.1v-4.4h-4.2V143h6.2v6.8c-1.1,1.4-3.5,3.5-7.4,3.5
					C468.6,153.3,464.4,149.1,464.4,143.9z"/>
				<path class="st0" d="M488.2,135h2v18h-2V135z"/>
			</g>
		</g>
		<polygon class="st0" points="322.1,143.7 307.8,152 307.8,135.4 		"/>
	</g>
	<g>
		<path class="st0" d="M6.3,100.3l3.2-3.2c0.5-0.5,0.8-1.2,0.8-2V11.7c0-1.2-0.6-2.3-1.6-3L0,2.9c0.1-0.2,0.1-0.2,0.1-0.4h59.2
			c22.1,0,51.4,20.9,56.2,47.8l0.2,1.2l-0.2,1.2c-4.8,26.9-34.1,47.8-56.2,47.8l-52.9,0C6.4,100.4,6.4,100.4,6.3,100.3z M59.4,86.8
			c14.1,0,38-14.8,42.4-35.3C97.4,31,73.4,16.2,59.4,16.2H25.3c-0.7,0-1.2,0.5-1.2,1.2v68.2c0,0.7,0.5,1.2,1.2,1.2H59.4z"/>
		<path class="st0" d="M156.4,100.3l3.2-3.2c0.5-0.5,0.8-1.2,0.8-2V7.8c0-0.7-0.3-1.4-0.8-2l-3.2-3.2c0-0.1,0-0.1,0.1-0.2h15.6
			c1.1,0,2,0.9,2,2v94c0,1.1-0.9,2-2,2h-15.6C156.5,100.4,156.5,100.4,156.4,100.3z"/>
		<path class="st0" d="M227.5,8.1c-0.5-0.9-1.2-1.6-2-2.1l-5.2-3.3c0-0.1,0-0.1,0.1-0.2h17.4c1.4,0,2.8,0.8,3.5,2.1L280,74.9
			l38.8-70.4c0.7-1.3,2-2.1,3.5-2.1h17.4c0,0.1,0,0.1,0.1,0.2L334.5,6c-0.8,0.5-1.5,1.3-2,2.1l-52.3,94.8c-0.2,0-0.2,0-0.4,0
			L227.5,8.1z"/>
		<path class="st0" d="M434.1,82.4h-60l-8.7,15.8c-0.8,1.4-2.3,2.3-3.9,2.3h-17.1c0-0.1,0-0.1-0.1-0.2l5.1-3.2
			c0.9-0.6,1.7-1.4,2.2-2.3L403.9,0c0.2,0,0.2,0,0.4,0l48,86.9l15.4-28c0.8-1.4,2.3-2.3,3.9-2.3h19.1c0.1,0.2,0.1,0.2,0.1,0.5
			l-6.6,3.7c-1.8,1-3.3,2.5-4.3,4.3L452.5,115c-0.2,0-0.2,0-0.4,0L434.1,82.4z M426.6,68.7L404.1,28l-22.4,40.7H426.6z"/>
	</g>
</g>
</svg>
