<?xml version="1.0" encoding="utf-8"?>
<!-- Generator: Adobe Illustrator 25.1.0, SVG Export Plug-In . SVG Version: 6.00 Build 0)  -->
<svg version="1.1" id="レイヤー_1" xmlns="http://www.w3.org/2000/svg" xmlns:xlink="http://www.w3.org/1999/xlink" x="0px"
	 y="0px" viewBox="0 0 260.6 100" style="enable-background:new 0 0 260.6 100;" xml:space="preserve">
<style type="text/css">
	.st0{fill:#E6290F;}
</style>
<g>
	<path class="st0" d="M3.4,53.3L5,51.6c0.3-0.3,0.4-0.6,0.4-1V6.2c0-0.6-0.3-1.2-0.9-1.6L0,1.5c0-0.1,0-0.1,0.1-0.2h31.4
		c11.7,0,27.3,11.1,29.8,25.4l0.1,0.6L61.3,28c-2.5,14.3-18.1,25.4-29.8,25.4H3.4C3.4,53.3,3.4,53.3,3.4,53.3z M31.5,46.1
		c7.5,0,20.2-7.9,22.5-18.7C51.7,16.5,39,8.6,31.5,8.6H13.4c-0.4,0-0.6,0.3-0.6,0.6v36.2c0,0.4,0.3,0.6,0.6,0.6L31.5,46.1L31.5,46.1
		z"/>
	<path class="st0" d="M83,53.3l1.7-1.7c0.3-0.3,0.4-0.7,0.4-1V4.1c0-0.4-0.2-0.8-0.4-1L83,1.4c0-0.1,0-0.1,0-0.1h8.3
		c0.6,0,1.1,0.5,1.1,1.1v49.9c0,0.6-0.5,1.1-1.1,1.1H83C83.1,53.3,83.1,53.3,83,53.3z"/>
	<path class="st0" d="M120.8,4.3c-0.3-0.5-0.6-0.9-1.1-1.1l-2.8-1.7c0-0.1,0-0.1,0-0.1h9.2c0.8,0,1.5,0.4,1.8,1.1l20.6,37.4
		l20.6-37.4c0.4-0.7,1.1-1.1,1.8-1.1h9.2c0,0.1,0,0.1,0,0.1l-2.8,1.8c-0.4,0.3-0.8,0.7-1.1,1.1l-27.8,50.3c-0.1,0-0.1,0-0.2,0
		L120.8,4.3z"/>
	<path class="st0" d="M230.5,43.8h-31.9l-4.6,8.4c-0.4,0.8-1.2,1.2-2.1,1.2h-9.1c0-0.1,0-0.1,0-0.1l2.7-1.7c0.5-0.3,0.9-0.7,1.2-1.2
		L214.5,0c0.1,0,0.1,0,0.2,0l25.5,46.2l8.2-14.9c0.4-0.8,1.2-1.2,2.1-1.2h10.1c0,0.1,0,0.1,0.1,0.2l-3.5,2c-1,0.5-1.7,1.3-2.3,2.3
		l-14.6,26.5c-0.1,0-0.1,0-0.2,0L230.5,43.8z M226.5,36.5l-11.9-21.6l-11.9,21.6H226.5z"/>
</g>
</svg>
